<svg xmlns="http://www.w3.org/2000/svg" viewBox="0 0 860 420" role="img" aria-label="Adobe Photoshop 2026 v27.7 + Firefly AI preview">
  <defs>
    <linearGradient id="bg" x1="0%" y1="0%" x2="100%" y2="100%">
      <stop offset="0%" stop-color="#001e3c"/>
      <stop offset="100%" stop-color="#0d47a1"/>
    </linearGradient>
  </defs>
  <rect width="860" height="420" rx="18" fill="url(#bg)"/>
  <circle cx="580" cy="40" r="2.5" fill="#bbdefb" opacity="0.18"/><circle cx="598" cy="40" r="2.5" fill="#bbdefb" opacity="0.18"/><circle cx="616" cy="40" r="2.5" fill="#bbdefb" opacity="0.18"/><circle cx="634" cy="40" r="2.5" fill="#bbdefb" opacity="0.18"/><circle cx="652" cy="40" r="2.5" fill="#bbdefb" opacity="0.18"/><circle cx="670" cy="40" r="2.5" fill="#bbdefb" opacity="0.18"/><circle cx="688" cy="40" r="2.5" fill="#bbdefb" opacity="0.18"/><circle cx="706" cy="40" r="2.5" fill="#bbdefb" opacity="0.18"/><circle cx="724" cy="40" r="2.5" fill="#bbdefb" opacity="0.18"/><circle cx="742" cy="40" r="2.5" fill="#bbdefb" opacity="0.18"/><circle cx="760" cy="40" r="2.5" fill="#bbdefb" opacity="0.18"/><circle cx="778" cy="40" r="2.5" fill="#bbdefb" opacity="0.18"/><circle cx="796" cy="40" r="2.5" fill="#bbdefb" opacity="0.18"/><circle cx="814" cy="40" r="2.5" fill="#bbdefb" opacity="0.18"/><circle cx="580" cy="58" r="2.5" fill="#bbdefb" opacity="0.18"/><circle cx="598" cy="58" r="2.5" fill="#bbdefb" opacity="0.18"/><circle cx="616" cy="58" r="2.5" fill="#bbdefb" opacity="0.18"/><circle cx="634" cy="58" r="2.5" fill="#bbdefb" opacity="0.18"/><circle cx="652" cy="58" r="2.5" fill="#bbdefb" opacity="0.18"/><circle cx="670" cy="58" r="2.5" fill="#bbdefb" opacity="0.18"/><circle cx="688" cy="58" r="2.5" fill="#bbdefb" opacity="0.18"/><circle cx="706" cy="58" r="2.5" fill="#bbdefb" opacity="0.18"/><circle cx="724" cy="58" r="2.5" fill="#bbdefb" opacity="0.18"/><circle cx="742" cy="58" r="2.5" fill="#bbdefb" opacity="0.18"/><circle cx="760" cy="58" r="2.5" fill="#bbdefb" opacity="0.18"/><circle cx="778" cy="58" r="2.5" fill="#bbdefb" opacity="0.18"/><circle cx="796" cy="58" r="2.5" fill="#bbdefb" opacity="0.18"/><circle cx="814" cy="58" r="2.5" fill="#bbdefb" opacity="0.18"/><circle cx="580" cy="76" r="2.5" fill="#bbdefb" opacity="0.18"/><circle cx="598" cy="76" r="2.5" fill="#bbdefb" opacity="0.18"/><circle cx="616" cy="76" r="2.5" fill="#bbdefb" opacity="0.18"/><circle cx="634" cy="76" r="2.5" fill="#bbdefb" opacity="0.18"/><circle cx="652" cy="76" r="2.5" fill="#bbdefb" opacity="0.18"/><circle cx="670" cy="76" r="2.5" fill="#bbdefb" opacity="0.18"/><circle cx="688" cy="76" r="2.5" fill="#bbdefb" opacity="0.18"/><circle cx="706" cy="76" r="2.5" fill="#bbdefb" opacity="0.18"/><circle cx="724" cy="76" r="2.5" fill="#bbdefb" opacity="0.18"/><circle cx="742" cy="76" r="2.5" fill="#bbdefb" opacity="0.18"/><circle cx="760" cy="76" r="2.5" fill="#bbdefb" opacity="0.18"/><circle cx="778" cy="76" r="2.5" fill="#bbdefb" opacity="0.18"/><circle cx="796" cy="76" r="2.5" fill="#bbdefb" opacity="0.18"/><circle cx="814" cy="76" r="2.5" fill="#bbdefb" opacity="0.18"/><circle cx="580" cy="94" r="2.5" fill="#bbdefb" opacity="0.18"/><circle cx="598" cy="94" r="2.5" fill="#bbdefb" opacity="0.18"/><circle cx="616" cy="94" r="2.5" fill="#bbdefb" opacity="0.18"/><circle cx="634" cy="94" r="2.5" fill="#bbdefb" opacity="0.18"/><circle cx="652" cy="94" r="2.5" fill="#bbdefb" opacity="0.18"/><circle cx="670" cy="94" r="2.5" fill="#bbdefb" opacity="0.18"/><circle cx="688" cy="94" r="2.5" fill="#bbdefb" opacity="0.18"/><circle cx="706" cy="94" r="2.5" fill="#bbdefb" opacity="0.18"/><circle cx="724" cy="94" r="2.5" fill="#bbdefb" opacity="0.18"/><circle cx="742" cy="94" r="2.5" fill="#bbdefb" opacity="0.18"/><circle cx="760" cy="94" r="2.5" fill="#bbdefb" opacity="0.18"/><circle cx="778" cy="94" r="2.5" fill="#bbdefb" opacity="0.18"/><circle cx="796" cy="94" r="2.5" fill="#bbdefb" opacity="0.18"/><circle cx="814" cy="94" r="2.5" fill="#bbdefb" opacity="0.18"/><circle cx="580" cy="112" r="2.5" fill="#bbdefb" opacity="0.18"/><circle cx="598" cy="112" r="2.5" fill="#bbdefb" opacity="0.18"/><circle cx="616" cy="112" r="2.5" fill="#bbdefb" opacity="0.18"/><circle cx="634" cy="112" r="2.5" fill="#bbdefb" opacity="0.18"/><circle cx="652" cy="112" r="2.5" fill="#bbdefb" opacity="0.18"/><circle cx="670" cy="112" r="2.5" fill="#bbdefb" opacity="0.18"/><circle cx="688" cy="112" r="2.5" fill="#bbdefb" opacity="0.18"/><circle cx="706" cy="112" r="2.5" fill="#bbdefb" opacity="0.18"/><circle cx="724" cy="112" r="2.5" fill="#bbdefb" opacity="0.18"/><circle cx="742" cy="112" r="2.5" fill="#bbdefb" opacity="0.18"/><circle cx="760" cy="112" r="2.5" fill="#bbdefb" opacity="0.18"/><circle cx="778" cy="112" r="2.5" fill="#bbdefb" opacity="0.18"/><circle cx="796" cy="112" r="2.5" fill="#bbdefb" opacity="0.18"/><circle cx="814" cy="112" r="2.5" fill="#bbdefb" opacity="0.18"/><circle cx="580" cy="130" r="2.5" fill="#bbdefb" opacity="0.18"/><circle cx="598" cy="130" r="2.5" fill="#bbdefb" opacity="0.18"/><circle cx="616" cy="130" r="2.5" fill="#bbdefb" opacity="0.18"/><circle cx="634" cy="130" r="2.5" fill="#bbdefb" opacity="0.18"/><circle cx="652" cy="130" r="2.5" fill="#bbdefb" opacity="0.18"/><circle cx="670" cy="130" r="2.5" fill="#bbdefb" opacity="0.18"/><circle cx="688" cy="130" r="2.5" fill="#bbdefb" opacity="0.18"/><circle cx="706" cy="130" r="2.5" fill="#bbdefb" opacity="0.18"/><circle cx="724" cy="130" r="2.5" fill="#bbdefb" opacity="0.18"/><circle cx="742" cy="130" r="2.5" fill="#bbdefb" opacity="0.18"/><circle cx="760" cy="130" r="2.5" fill="#bbdefb" opacity="0.18"/><circle cx="778" cy="130" r="2.5" fill="#bbdefb" opacity="0.18"/><circle cx="796" cy="130" r="2.5" fill="#bbdefb" opacity="0.18"/><circle cx="814" cy="130" r="2.5" fill="#bbdefb" opacity="0.18"/><circle cx="580" cy="148" r="2.5" fill="#bbdefb" opacity="0.18"/><circle cx="598" cy="148" r="2.5" fill="#bbdefb" opacity="0.18"/><circle cx="616" cy="148" r="2.5" fill="#bbdefb" opacity="0.18"/><circle cx="634" cy="148" r="2.5" fill="#bbdefb" opacity="0.18"/><circle cx="652" cy="148" r="2.5" fill="#bbdefb" opacity="0.18"/><circle cx="670" cy="148" r="2.5" fill="#bbdefb" opacity="0.18"/><circle cx="688" cy="148" r="2.5" fill="#bbdefb" opacity="0.18"/><circle cx="706" cy="148" r="2.5" fill="#bbdefb" opacity="0.18"/><circle cx="724" cy="148" r="2.5" fill="#bbdefb" opacity="0.18"/><circle cx="742" cy="148" r="2.5" fill="#bbdefb" opacity="0.18"/><circle cx="760" cy="148" r="2.5" fill="#bbdefb" opacity="0.18"/><circle cx="778" cy="148" r="2.5" fill="#bbdefb" opacity="0.18"/><circle cx="796" cy="148" r="2.5" fill="#bbdefb" opacity="0.18"/><circle cx="814" cy="148" r="2.5" fill="#bbdefb" opacity="0.18"/><circle cx="580" cy="166" r="2.5" fill="#bbdefb" opacity="0.18"/><circle cx="598" cy="166" r="2.5" fill="#bbdefb" opacity="0.18"/><circle cx="616" cy="166" r="2.5" fill="#bbdefb" opacity="0.18"/><circle cx="634" cy="166" r="2.5" fill="#bbdefb" opacity="0.18"/><circle cx="652" cy="166" r="2.5" fill="#bbdefb" opacity="0.18"/><circle cx="670" cy="166" r="2.5" fill="#bbdefb" opacity="0.18"/><circle cx="688" cy="166" r="2.5" fill="#bbdefb" opacity="0.18"/><circle cx="706" cy="166" r="2.5" fill="#bbdefb" opacity="0.18"/><circle cx="724" cy="166" r="2.5" fill="#bbdefb" opacity="0.18"/><circle cx="742" cy="166" r="2.5" fill="#bbdefb" opacity="0.18"/><circle cx="760" cy="166" r="2.5" fill="#bbdefb" opacity="0.18"/><circle cx="778" cy="166" r="2.5" fill="#bbdefb" opacity="0.18"/><circle cx="796" cy="166" r="2.5" fill="#bbdefb" opacity="0.18"/><circle cx="814" cy="166" r="2.5" fill="#bbdefb" opacity="0.18"/>
  <rect x="36" y="36" width="420" height="6" rx="3" fill="#bbdefb" opacity="0.35"/>
  <text x="48" y="120" fill="#ffffff" font-family="Segoe UI, Arial, sans-serif" font-size="42" font-weight="700">Adobe Photoshop 2026 v27.7 + Firefly AI</text>
  <text x="48" y="168" fill="#ffffff" font-family="Segoe UI, Arial, sans-serif" font-size="20" opacity="0.85">Firefly-powered editing</text>
  <rect x="48" y="200" width="260" height="4" rx="2" fill="#bbdefb" opacity="0.3"/>
  <rect x="48" y="220" width="200" height="4" rx="2" fill="#bbdefb" opacity="0.2"/>
  <rect x="48" y="240" width="320" height="4" rx="2" fill="#bbdefb" opacity="0.15"/>
</svg>
